PathFileType	4	(X/Y/Z)	/Users/itak/Documents/Research/Walk-IL/dataset/trc/00127_00007.trc
DataRate	CameraRate	NumFrames	NumMarkers	Units	OrigDataRate	OrigDataStartFrame	OrigNumFrames
100.000000	100.000000	4	53	mm	100.000000	90	721
Frame#	Time	RPSI			LPSI			L3			STRN			T10			C7			CLAV			RBAK			LBAK			LSHO			LUPA			LAEL			LAOL			LWTS			LWPS			LFRA			LIFD			LHPS			LHTS			RSHO			RUPA			RAEL			RAOL			RWTS			RWPS			RFRA			RIFD			RHTS			RHPS			RBHD			LFHD			RFHD			LBHD			LHIP			RHIP			RASI			LASI			LKNE			LTHI			LANK			LTIP			LTOE			LMT1			LMT5			LHEE			RKNE			RTHI			RANK			RTIP			RTOE			RMT1			RMT5			RHEE			
		X1	Y1	Z1	X2	Y2	Z2	X3	Y3	Z3	X4	Y4	Z4	X5	Y5	Z5	X6	Y6	Z6	X7	Y7	Z7	X8	Y8	Z8	X9	Y9	Z9	X10	Y10	Z10	X11	Y11	Z11	X12	Y12	Z12	X13	Y13	Z13	X14	Y14	Z14	X15	Y15	Z15	X16	Y16	Z16	X17	Y17	Z17	X18	Y18	Z18	X19	Y19	Z19	X20	Y20	Z20	X21	Y21	Z21	X22	Y22	Z22	X23	Y23	Z23	X24	Y24	Z24	X25	Y25	Z25	X26	Y26	Z26	X27	Y27	Z27	X28	Y28	Z28	X29	Y29	Z29	X30	Y30	Z30	X31	Y31	Z31	X32	Y32	Z32	X33	Y33	Z33	X34	Y34	Z34	X35	Y35	Z35	X36	Y36	Z36	X37	Y37	Z37	X38	Y38	Z38	X39	Y39	Z39	X40	Y40	Z40	X41	Y41	Z41	X42	Y42	Z42	X43	Y43	Z43	X44	Y44	Z44	X45	Y45	Z45	X46	Y46	Z46	X47	Y47	Z47	X48	Y48	Z48	X49	Y49	Z49	X50	Y50	Z50	X51	Y51	Z51	X52	Y52	Z52	X53	Y53	Z53	

91	0.9	89.52965545654297	1118.2578125	1265.0869140625	57.38313674926758	1118.777099609375	1133.206909179688	67.92003631591797	1156.03955078125	1201.076782226562	300.7548522949219	1338.429321289062	1153.391479492188	57.38197708129883	1309.282104492188	1213.839111328125	108.1617584228516	1597.908325195312	1182.0849609375	275.8688049316406	1475.862548828125	1150.794555664062	63.83979415893555	1422.078125	1287.99365234375	73.58200836181641	1576.196166992188	1086.679931640625	138.7252807617188	1551.287109375	999.7736206054688	87.83815002441406	1422.371337890625	942.7008666992188	69.19325256347656	1204.137329101562	925.2605590820312	17.31332397460938	1200.71240234375	996.5233764648438	144.7111663818359	936.0676879882812	954.7700805664062	55.83394622802734	920.8323974609375	945.996337890625	69.93977355957031	1086.687377929688	921.6874389648438	136.6792449951172	744.1774291992188	984.1226806640625	74.17460632324219	842.6028442382812	942.3715209960938	145.3069915771484	844.7411499023438	945.0587768554688	205.2373352050781	1579.89501953125	1344.694458007812	200.6877746582031	1509.61474609375	1414.106811523438	192.5055389404297	1214.542846679688	1451.786499023438	155.5853424072266	1210.049682617188	1360.07470703125	354.9912109375	989.80810546875	1394.540161132812	294.4193725585938	964.5343627929688	1443.492553710938	225.9966125488281	1142.413452148438	1459.48486328125	396.6899719238281	800.899169921875	1363.8828125	398.7341613769531	886.0990600585938	1389.689086914062	343.6569213867188	871.2777099609375	1435.6416015625	199.2487945556641	1776.043701171875	1233.626098632812	278.5870361328125	1804.47265625	1028.2841796875	342.0972900390625	1827.404174804688	1139.319458007812	126.0153350830078	1757.582397460938	1120.52880859375	132.3481597900391	1030.276245117188	1008.468627929688	227.6716613769531	1015.473205566406	1359.3994140625	304.5284423828125	1082.502563476562	1295.594604492188	245.4999694824219	1088.953369140625	1036.841552734375	392.9898071289062	589.2244262695312	995.877685546875	285.8070373535156	706.5162353515625	984.5584106445312	329.7835693359375	68.20906066894531	1044.783569335938	315.5355224609375	322.6337585449219	1006.724365234375	558.3505249023438	67.38109588623047	1033.486083984375	496.482666015625	67.11908721923828	1087.860595703125	439.86572265625	61.58170318603516	988.7588500976562	282.0983276367188	73.47381591796875	1122.602416992188	158.6921691894531	525.6107788085938	1323.253662109375	222.3131408691406	801.2318115234375	1347.000366210938	-27.79632568359375	35.53444290161133	1315.890380859375	114.4096755981445	395.2015380859375	1337.132934570312	202.8009948730469	47.4426383972168	1249.319458007812	138.9705352783203	38.38222122192383	1210.974853515625	108.273796081543	42.85486602783203	1332.881103515625	-89.48884582519531	37.52756881713867	1269.065673828125	
92	0.91	94.54881286621094	1117.2177734375	1263.820922851562	61.85249710083008	1117.668212890625	1132.097778320312	72.77837371826172	1155.076904296875	1199.90185546875	305.6872863769531	1337.14208984375	1150.9169921875	62.51280975341797	1308.325927734375	1212.559814453125	113.5861434936523	1596.852905273438	1180.258056640625	280.9401550292969	1474.608642578125	1148.2578125	69.32942962646484	1421.238525390625	1286.564819335938	78.55943298339844	1575.09912109375	1085.031005859375	143.1346435546875	1549.990600585938	997.806396484375	91.57071685791016	1421.023803710938	941.3734741210938	71.91703033447266	1202.811401367188	924.83740234375	20.74540519714355	1199.811279296875	996.6455078125	146.0454254150391	934.3253784179688	954.3417358398438	56.99291229248047	919.6705932617188	946.5046997070312	71.99446868896484	1085.393798828125	921.584228515625	136.9895782470703	742.5438232421875	984.3045043945312	74.79505157470703	841.3023681640625	942.916748046875	145.9033203125	842.9482421875	944.9028930664062	211.4451446533203	1578.8037109375	1342.419921875	207.2587127685547	1508.510864257812	1411.840209960938	199.9466094970703	1213.359619140625	1449.672973632812	162.2865447998047	1208.864013671875	1358.205322265625	362.7108764648438	989.2290649414062	1390.81298828125	302.6932067871094	963.6861572265625	1440.290283203125	233.7006988525391	1141.28857421875	1456.9931640625	404.8551940917969	800.50830078125	1359.669921875	406.82275390625	885.6976318359375	1385.49365234375	352.2137756347656	870.6395874023438	1431.951049804688	205.4392852783203	1775.031372070312	1231.139282226562	283.019775390625	1802.88720703125	1025.006713867188	347.5023803710938	1825.944458007812	1135.406494140625	131.2495422363281	1756.420166015625	1118.751586914062	136.3817596435547	1029.050537109375	1007.110900878906	233.1327819824219	1014.339294433594	1357.506469726562	309.7889404296875	1081.288940429688	1293.388916015625	249.4942932128906	1087.635498046875	1034.951293945312	396.6355895996094	588.6043701171875	992.3153076171875	289.1441650390625	705.3853759765625	981.9030151367188	348.2876586914062	66.38612365722656	1040.467895507812	326.17822265625	320.4765625	1003.290466308594	576.7280883789062	71.00527954101562	1027.216430664062	515.3778076171875	69.33892059326172	1082.10302734375	458.0174560546875	62.52907943725586	983.4557495117188	301.2308654785156	70.45870971679688	1118.727416992188	162.0661773681641	524.7201538085938	1321.829956054688	226.9639587402344	800.1614990234375	1345.011474609375	-27.61299133300781	35.91748428344727	1315.6943359375	116.943603515625	394.5790100097656	1335.964233398438	203.1120758056641	47.12171936035156	1249.021362304688	139.1546173095703	38.23063659667969	1210.873046875	108.3100204467773	42.86034774780273	1332.80419921875	-89.43186187744141	37.89236068725586	1268.8544921875	
93	0.92	99.70637512207031	1116.1142578125	1262.46484375	66.50371551513672	1116.484497070312	1130.888793945312	77.78241729736328	1154.048950195312	1198.616088867188	310.7372131347656	1335.818115234375	1148.351684570312	67.76565551757812	1307.303344726562	1211.15673828125	119.0901107788086	1595.739135742188	1178.296997070312	286.1105041503906	1473.313110351562	1145.606567382812	74.88356018066406	1420.357177734375	1285.003662109375	83.63182830810547	1573.933227539062	1083.252807617188	147.6467590332031	1548.624877929688	995.7119750976562	95.4124755859375	1419.60400390625	939.9273071289062	74.77423858642578	1201.420654296875	924.31005859375	24.30082511901855	1198.838989257812	996.6580200195312	147.5875244140625	932.5519409179688	953.8513793945312	58.39544677734375	918.4497680664062	947.0064697265625	74.1934814453125	1084.046875	921.4010009765625	137.5785522460938	740.89501953125	984.4547119140625	75.69778442382812	839.93994140625	943.4569702148438	146.7123107910156	841.135498046875	944.6917114257812	217.7016296386719	1577.673583984375	1340.025756835938	213.9050140380859	1507.356811523438	1409.442504882812	207.5084533691406	1212.139038085938	1447.4130859375	169.112548828125	1207.629760742188	1356.183959960938	370.4376831054688	988.5281982421875	1387.000732421875	310.9536437988281	962.7686157226562	1436.998657226562	241.5010375976562	1140.12646484375	1454.371948242188	412.9459533691406	799.9728393554688	1355.422973632812	414.87255859375	885.1548461914062	1381.241943359375	360.7145080566406	869.8987426757812	1428.19677734375	211.6832122802734	1773.958862304688	1228.529052734375	287.5475769042969	1801.27099609375	1021.639587402344	352.975830078125	1824.441284179688	1131.4189453125	136.5932769775391	1755.211669921875	1116.856323242188	140.6174774169922	1027.755615234375	1005.667541503906	238.7159881591797	1013.161865234375	1355.54541015625	315.1761779785156	1080.043701171875	1291.129150390625	253.6784515380859	1086.268188476562	1032.990234375	400.1470947265625	587.6961059570312	988.8448486328125	292.5033569335938	704.0332641601562	979.2999877929688	366.4294128417969	64.74959564208984	1035.9775390625	336.5912780761719	318.2679748535156	999.862060546875	594.5830078125	74.82122039794922	1020.485656738281	533.8667602539062	71.71292114257812	1075.960815429688	475.6771240234375	63.68116760253906	977.8543090820312	320.1576843261719	67.60071563720703	1114.73974609375	165.5756072998047	523.791748046875	1320.34619140625	231.7104187011719	799.0507202148438	1342.955688476562	-27.42310905456543	36.33800888061523	1315.489379882812	119.5652236938477	393.9281921386719	1334.752807617188	203.4444427490234	46.7572135925293	1248.728637695312	139.3254699707031	38.07330322265625	1210.7880859375	108.3519821166992	42.86494445800781	1332.729370117188	-89.37391662597656	38.31963729858398	1268.613525390625	
94	0.93	105.0222473144531	1114.946411132812	1261.000854492188	71.33827209472656	1115.234130859375	1129.563720703125	82.92705535888672	1152.958129882812	1197.2109375	315.9058837890625	1334.460083007812	1145.69384765625	73.14551544189453	1306.218505859375	1209.624877929688	124.6713562011719	1594.569702148438	1176.197998046875	291.3828735351562	1471.979736328125	1142.838012695312	80.52462768554688	1419.432983398438	1283.3115234375	88.78910064697266	1572.703369140625	1081.345458984375	152.2594451904297	1547.191772460938	993.4893798828125	99.365966796875	1418.114990234375	938.3579711914062	77.77431488037109	1199.968872070312	923.6693115234375	27.98318099975586	1197.798950195312	996.5436401367188	149.3509826660156	930.7487182617188	953.296142578125	60.06563568115234	917.173583984375	947.4967041015625	76.53555297851562	1082.64501953125	921.1298828125	138.45556640625	739.2338256835938	984.5709228515625	76.89466094970703	838.5145263671875	943.98046875	147.7543334960938	839.3021850585938	944.4199829101562	224.0130920410156	1576.512329101562	1337.50830078125	220.6283264160156	1506.163818359375	1406.914916992188	215.1867980957031	1210.891235351562	1445.010986328125	176.0471649169922	1206.3583984375	1354.01416015625	378.1654968261719	987.7131958007812	1383.10400390625	319.1969604492188	961.7883911132812	1433.621459960938	249.3900451660156	1138.935913085938	1451.625244140625	420.9545288085938	799.3001708984375	1351.142456054688	422.8721313476562	884.4797973632812	1376.936645507812	369.1557922363281	869.0610961914062	1424.382934570312	217.9763946533203	1772.826416015625	1225.794921875	292.1664123535156	1799.63134765625	1018.179321289062	358.5137329101562	1822.9052734375	1127.35986328125	142.0429077148438	1753.95263671875	1114.838623046875	145.0642852783203	1026.39794921875	1004.127990722656	244.4151306152344	1011.941040039062	1353.512573242188	320.6867980957031	1078.769409179688	1288.816528320312	258.0945129394531	1084.858032226562	1030.94482421875	403.5439758300781	586.5099487304688	985.4729614257812	295.89208984375	702.45947265625	976.7413940429688	384.14013671875	63.29378509521484	1031.328125	346.7514953613281	316.0124206542969	996.4483032226562	611.851318359375	78.78440856933594	1013.344604492188	551.881591796875	74.20875549316406	1069.470092773438	492.7748718261719	65.00412750244141	971.9868774414062	338.8202209472656	64.90972137451172	1110.654541015625	169.2179412841797	522.8292236328125	1318.798217773438	236.5462493896484	797.8978271484375	1340.84033203125	-27.25443649291992	36.78543472290039	1315.276733398438	122.2746200561523	393.2540283203125	1333.497314453125	203.8000030517578	46.35883331298828	1248.450927734375	139.4819641113281	37.91128540039062	1210.720825195312	108.395622253418	42.8695068359375	1332.652587890625	-89.31867218017578	38.81875610351562	1268.347290039062	
